<?xml version="1.0" standalone="no"?>
<!DOCTYPE svg PUBLIC "-//W3C//DTD SVG 20010904//EN"
 "http://www.w3.org/TR/2001/REC-SVG-20010904/DTD/svg10.dtd">
<svg version="1.0" xmlns="http://www.w3.org/2000/svg"
 width="500.000000pt" height="500.000000pt" viewBox="0 0 500.000000 500.000000"
 preserveAspectRatio="xMidYMid meet">
<metadata>
Created by potrace 1.11, written by Peter Selinger 2001-2013
</metadata>
<g transform="translate(0.000000,500.000000) scale(0.100000,-0.100000)"
fill="#000000" stroke="none">
<path d="M3028 3775 c-1 -1 -52 -6 -113 -10 -107 -6 -133 -8 -280 -20 -38 -3
-106 -7 -150 -10 -44 -3 -105 -8 -135 -10 -30 -2 -93 -7 -140 -10 -47 -3 -107
-8 -135 -10 -27 -2 -86 -7 -130 -11 -179 -14 -331 -88 -465 -225 -163 -167
-225 -413 -147 -582 50 -108 135 -183 244 -217 67 -21 114 -26 323 -35 74 -4
162 -8 195 -10 33 -2 65 -4 71 -4 8 -1 7 -25 -2 -85 -17 -118 -21 -129 -47
-122 -12 2 -74 8 -137 12 -63 3 -123 8 -133 10 -9 1 -61 6 -115 9 -113 8 -152
-3 -199 -55 -33 -37 -53 -111 -42 -159 4 -19 20 -47 36 -62 29 -29 63 -37 228
-54 33 -3 74 -8 90 -10 17 -2 59 -7 95 -10 36 -4 72 -9 80 -10 8 -2 47 -6 85
-10 39 -4 80 -8 91 -10 31 -5 136 -17 259 -30 33 -3 94 -10 135 -15 122 -15
183 -22 210 -25 31 -2 144 -16 185 -21 82 -12 136 -5 178 23 116 78 98 256
-33 323 -40 20 -78 27 -210 35 -52 4 -111 8 -130 10 -19 2 -82 6 -140 10 -58
4 -114 8 -125 10 -11 1 -30 3 -42 4 -13 0 -20 6 -18 14 6 15 13 80 14 134 1
39 24 79 39 69 4 -2 63 -7 132 -10 407 -19 453 -23 516 -41 77 -22 143 -63
210 -129 215 -215 173 -560 -85 -690 -27 -14 -82 -31 -121 -38 -65 -11 -92 -9
-373 30 -166 24 -324 47 -352 52 -27 5 -72 12 -100 15 -27 3 -63 8 -80 10 -74
11 -322 47 -344 50 -13 2 -45 7 -70 11 -50 6 -64 8 -126 18 -22 3 -56 7 -75
10 -114 15 -140 21 -187 43 -90 42 -147 133 -159 250 -10 102 -32 135 -98 147
-59 11 -141 -53 -166 -129 -15 -47 -8 -186 15 -269 19 -73 75 -179 118 -227
44 -48 120 -105 174 -130 39 -18 150 -46 248 -63 35 -6 70 -13 141 -27 28 -5
64 -12 80 -15 32 -5 91 -16 204 -39 41 -8 102 -19 135 -25 33 -6 71 -13 85
-16 76 -15 339 -64 360 -68 14 -2 108 -20 210 -40 102 -20 203 -39 225 -43 22
-5 99 -7 170 -7 116 1 140 5 225 32 210 69 369 208 460 405 44 94 61 171 65
292 9 253 -78 469 -265 655 -142 143 -286 219 -502 266 -22 5 -241 12 -523 17
l-140 3 1 29 c1 39 13 148 17 151 2 2 129 4 283 4 254 1 283 3 321 21 117 54
123 189 10 239 -36 17 -60 18 -177 15 -74 -2 -223 -7 -330 -10 -482 -13 -803
-25 -831 -30 -55 -11 -123 -97 -114 -145 17 -88 25 -90 310 -90 220 0 236 -1
231 -17 -3 -10 -8 -38 -11 -63 -3 -25 -7 -54 -9 -65 -3 -11 -5 -23 -5 -27 -1
-8 -455 -1 -504 8 -51 8 -115 52 -145 96 -24 36 -27 51 -27 117 1 96 27 155
103 229 86 85 153 109 327 117 50 2 142 7 205 10 63 3 156 8 205 10 127 7 280
14 420 20 66 3 165 7 220 10 216 11 329 -42 429 -200 36 -58 83 -85 155 -90
75 -4 100 4 147 50 36 34 44 48 44 77 0 53 -36 113 -115 194 -105 106 -237
174 -395 202 -50 9 -253 15 -262 7z"/>
</g>
</svg>
